<svg width="157" height="119" viewBox="0 0 157 119" fill="none" xmlns="http://www.w3.org/2000/svg">
<path d="M78.5086 14.1887C80.4917 9.43303 83.3095 5.64188 87.6499 3.14003C91.0555 1.17753 94.7728 0.203173 98.6546 0.112626C112.101 -0.198382 122.7 5.39189 130.775 16.0449C131.106 16.4819 131.475 16.7712 131.961 16.9996C142.35 21.8714 148.709 29.9162 150.751 41.2838C151.403 44.9155 151.452 48.5846 150.653 52.2222C150.57 52.6001 150.629 52.9112 150.833 53.2399C155.691 61.0308 157.625 69.5521 156.825 78.6559C155.951 88.6141 152.551 97.6491 146.071 105.314C140.716 111.648 133.752 115.52 125.79 117.538C115.863 120.053 106.16 119.382 96.7891 115.064C96.4148 114.89 96.1052 114.851 95.6976 115.032C90.5323 117.333 85.0946 118.111 79.4865 117.914C77.1722 117.833 74.862 118.012 72.5419 117.813C68.713 117.485 65.0212 116.66 61.496 115.129C60.9767 114.902 60.5887 114.908 60.0577 115.15C53.1758 118.288 45.9608 119.457 38.4382 118.78C29.8496 118.008 22.1133 115.069 15.351 109.652C9.76635 105.176 6.12358 99.3045 3.49585 92.7458C0.740748 85.8682 -0.452606 78.7189 0.154848 71.3157C0.676083 64.9578 2.60034 59.0349 5.94526 53.5981C6.29014 53.0371 6.36656 52.545 6.26466 51.8679C4.83029 42.3841 6.95246 33.7999 12.929 26.2727C16.2171 22.1312 20.3439 19.0349 25.1918 16.9307C25.5954 16.7555 25.8894 16.5094 26.1519 16.1512C32.6654 7.23432 41.3755 1.92356 52.2627 0.331119C56.6266 -0.306644 60.9904 -0.0468143 65.2269 1.31729C71.1976 3.24042 75.3244 7.23038 77.9208 12.8974C78.0913 13.2714 78.2617 13.6454 78.5086 14.1887ZM67.3256 111.605C67.4549 111.611 67.5862 111.617 67.7156 111.623C70.0376 112.32 72.4341 112.473 74.8306 112.648C75.7104 112.713 76.0004 112.461 75.9906 111.526C75.9397 106.741 75.9632 101.954 75.9515 97.1688C75.9515 96.9365 76.0827 96.6511 75.7555 96.407C73.7431 98.6884 71.2172 100.212 68.4053 101.253C66.0519 102.127 63.628 102.747 61.0982 102.794C60.1537 102.812 59.3856 102.07 59.3033 101.19C59.2229 100.318 59.9029 99.4285 60.7886 99.2769C61.3 99.1884 61.8174 99.1352 62.3308 99.0683C66.8475 98.4896 70.7979 96.7672 73.8038 93.2241C74.7973 92.0549 75.8809 90.7537 75.9044 89.2046C76.0024 82.8467 75.9279 76.4867 75.9162 70.1268C75.926 69.3178 75.924 68.5088 75.9495 67.6998C75.9652 67.2175 75.8887 66.9675 75.3048 67.1565C74.8228 67.314 74.2957 67.3376 73.7901 67.4203C73.7176 67.4675 73.647 67.5167 73.5745 67.564C73.5177 67.5581 73.4589 67.564 73.4021 67.5738C72.8476 67.5738 72.2911 67.5758 71.7365 67.5738C69.1245 67.56 66.6456 67.0384 64.3569 65.7019C63.0577 64.944 61.9741 63.9126 60.7788 62.9323C60.6495 63.4303 60.5535 63.8653 60.4222 64.2905C58.9388 69.1033 56.1759 73.0027 52.1569 76.0143C51.23 76.7072 50.164 76.6088 49.4802 75.725C48.8257 74.8805 48.9942 73.8648 49.9504 73.1641C53.6167 70.4772 56.0015 66.9223 57.2144 62.5367C57.4554 61.6686 57.2615 61.4265 56.3895 61.456C54.7454 61.5111 53.1523 61.2159 51.6533 60.4974C48.5317 58.9994 46.6192 56.4366 45.3808 53.2871C45.2241 52.8875 45.0967 52.4722 44.6832 52.2596C42.8432 51.3187 41.2286 50.0609 39.7021 48.6811C39.7021 48.5531 39.6296 48.4901 39.5101 48.4724L39.5179 48.4803C39.4885 48.4232 39.4728 48.3563 39.4317 48.311C34.7445 43.262 33.2023 37.2702 34.1723 30.5383C34.2507 30.0009 33.992 29.7804 33.6452 29.5088C31.1801 27.5817 29.3048 25.1763 28.037 22.3143C27.7744 21.7218 27.553 21.6332 26.971 21.9009C23.6966 23.4028 20.8161 25.448 18.3413 28.0699C16.9539 29.5403 15.7194 31.1229 14.6534 33.0421C16.3798 33.0165 17.9298 33.3688 19.5052 33.5263C20.7142 34.0086 21.986 34.3314 23.1362 34.9573C23.5477 35.1817 23.7378 34.918 23.9592 34.6857C24.6686 33.9436 25.5151 33.3944 26.4145 32.9259C27.459 32.3827 28.5445 32.6661 29.0148 33.5755C29.4557 34.4298 29.0795 35.5774 28.1036 36.0872C25.7189 37.3352 24.6039 39.404 24.2394 41.9727C24.1963 42.2739 24.1532 42.5475 23.9377 42.7778C23.3929 43.3624 22.7874 43.7463 21.9546 43.4097C21.0709 43.0534 20.5732 42.2936 20.7201 41.3094C20.8436 40.4748 21.0513 39.6421 21.3276 38.8469C21.5098 38.3194 21.4177 38.0615 20.92 37.8725C19.7933 37.4454 18.6705 37.0124 17.4653 36.8647C16.2171 36.601 14.965 36.4966 13.6854 36.6088C13.078 36.662 12.8056 36.8844 12.6077 37.4769C11.2223 41.6381 10.6893 45.8859 11.3163 50.24C11.8787 54.1375 13.7403 57.2259 17.1518 59.2868C17.2184 59.2199 17.3223 59.1648 17.3478 59.0841C18.7528 54.5449 21.5529 51.1238 25.5935 48.7007C26.0069 48.4527 26.4615 48.2421 26.9749 48.4409C27.5824 48.5807 27.8469 49.1653 28.3192 49.4802C28.5171 50.7124 28.0135 51.4841 26.9162 52.0943C25.4563 52.9072 24.2551 54.0843 23.2283 55.415C20.6692 58.7298 19.6267 62.4973 19.6894 66.6742C19.7835 73.0893 24.1787 77.717 30.071 78.8921C30.6099 78.9984 30.6432 78.8784 30.604 78.3607C30.5021 77.0379 30.312 75.7368 30.4414 74.3766C30.7608 71.0264 32.0541 68.1407 34.1645 65.5956C34.5211 65.1665 34.572 64.885 34.3153 64.4047C33.8255 63.4815 33.3904 62.5249 33.4218 61.4344C33.4492 60.4639 33.9117 59.9108 34.8523 59.7258C35.6792 59.5644 36.5355 59.9954 36.7667 60.8675C37.4036 63.263 38.7909 64.9716 41.0169 66.0601C41.8713 66.4774 42.1358 67.5817 41.7361 68.3376C41.2678 69.2233 40.239 69.5835 39.3082 69.1466C38.7498 68.8848 38.1737 68.6151 37.6975 68.2332C37.092 67.747 36.7706 67.9754 36.3924 68.497C35.299 70.0009 34.5622 71.6523 34.237 73.4869C33.9019 74.4494 34.0332 75.4455 34.0351 76.4316C34.1801 81.4983 36.7256 85.0631 41.0365 87.4134C44.1091 89.0885 47.4168 89.6672 50.9322 89.2617C54.0302 88.9054 56.8735 87.9468 59.4934 86.2737C59.6893 86.1418 59.8833 86.0099 60.0793 85.878C60.7357 85.5709 61.253 85.0592 61.8428 84.6615C62.3974 84.2895 62.4562 83.9391 62.2445 83.3604C61.8526 82.2896 61.4509 81.2149 61.4529 80.0456C61.4529 78.8921 62.1387 78.0615 63.1361 78.0201C63.9591 77.9867 64.8331 78.7977 64.9624 79.7602C65.3347 82.514 66.6868 84.6537 68.9442 86.2323C70.0258 86.9882 70.3198 87.8818 69.7691 88.7991C69.2146 89.7243 68.1545 89.8995 67.0219 89.2676C66.2106 88.8149 65.5581 88.1751 64.935 87.5039C64.6469 87.1929 64.4627 87.1083 64.0728 87.4449C62.5306 88.7716 60.7945 89.7991 58.9604 90.679C54.7278 92.7104 50.2777 93.4721 45.663 92.7162C39.7158 91.7419 35.0894 88.6692 32.0168 83.388C31.7601 82.9471 31.474 82.7837 30.9646 82.6931C28.5622 82.2601 26.1539 81.7877 24.0768 80.3842C23.4145 79.9374 23.0226 80.1657 22.6346 80.7031C21.6293 82.0928 20.8436 83.5848 20.5105 85.2875C20.1362 86.439 20.0578 87.624 20.1283 88.8247C19.9735 89.2971 19.9853 89.7499 20.0598 90.2577C20.3282 92.0726 20.6653 93.852 21.3785 95.5586C21.792 96.5487 21.3335 97.4404 20.3361 97.8735C19.564 98.2081 18.4784 97.8223 18.1257 96.9877C16.6482 93.4898 16.1015 89.8621 16.6757 86.0808C17.1381 83.0356 18.3099 80.3173 20.2753 77.9473C20.4282 77.7642 20.6123 77.591 20.2792 77.408C19.1564 76.1246 18.2217 74.725 17.5124 73.1601C16.1466 70.1426 15.98 66.9715 16.2073 63.7374C16.2328 63.387 16.3308 63.074 15.9173 62.8083C13.6051 61.3162 11.5632 59.523 9.99169 57.1058C6.88584 62.5229 5.40443 68.249 5.2653 74.5341C6.46258 73.8038 7.60694 73.3531 8.74347 72.8865C9.5312 72.7015 10.3131 72.4929 11.1067 72.3354C12.1433 72.1307 13.0642 72.7251 13.2602 73.6778C13.4855 74.7801 12.9741 75.5892 11.8493 75.8431C10.5854 76.1285 9.32153 76.4119 8.15757 77.0103C7.30909 77.3647 6.56839 77.8902 5.84728 78.4532C5.56511 78.6736 5.42403 78.9118 5.48673 79.2898C5.64153 80.2228 5.74539 81.1656 5.90803 82.0967C6.75651 86.9587 8.4417 91.5273 10.7304 95.8814C12.204 98.3479 13.7755 100.749 15.7586 102.838C18.9487 106.194 22.7404 108.702 26.9632 110.54C28.3564 111.146 29.7438 111.82 31.28 112.036C31.7131 112.249 32.152 112.436 32.6439 112.444C32.7379 112.585 32.8712 112.629 33.0338 112.599C33.1651 112.603 33.2964 112.607 33.4277 112.613C33.8686 112.715 34.3114 112.81 34.7504 112.926C35.0031 112.993 35.2932 113.144 35.4773 112.912C35.6322 112.721 35.4029 112.489 35.3225 112.282C33.9822 108.816 33.4473 105.249 33.9999 101.548C34.0626 101.133 33.894 100.901 33.5805 100.651C32.6909 99.9423 31.8169 99.2199 31.1507 98.2652C30.4786 97.2987 30.5217 96.218 31.3427 95.5567C32.1579 94.8992 33.2729 95.098 33.9763 96.0409C35.1991 97.6825 36.8216 98.6313 38.8066 99.1018C39.8216 99.3419 41.0071 98.9285 41.8556 99.8458C42.271 100.444 42.3024 101.117 42.226 101.808C41.7812 102.161 41.4128 102.615 40.87 102.836C40.3507 102.836 39.8314 102.838 39.3141 102.84C39.0535 102.82 38.7929 102.802 38.5323 102.783C38.2462 102.491 37.8837 102.625 37.5486 102.611C37.3801 102.688 37.3605 102.828 37.3899 102.989C37.3879 103.121 37.3859 103.253 37.384 103.385C37.1155 106.647 37.8856 109.676 39.4611 112.511C39.7276 112.989 39.8824 113.615 40.6603 113.634C43.7916 113.715 46.8955 113.54 49.972 112.902C53.505 112.17 56.848 110.932 60.0185 109.215C60.477 108.967 60.8356 108.918 61.3588 109.192C62.8246 109.958 64.3197 110.69 65.952 111.062C66.2929 111.333 66.6907 111.442 67.1179 111.459C67.1845 111.507 67.2511 111.554 67.3158 111.601L67.3256 111.605ZM129.217 48.8799C129.217 48.8799 129.231 48.8602 129.231 48.8582C129.566 48.6732 129.901 48.4901 130.236 48.3051C130.358 48.3051 130.477 48.3051 130.599 48.3051C131.11 48.5807 131.647 48.8169 132.131 49.1358C135.839 51.5667 138.296 54.9622 139.734 59.1372C139.912 59.3813 140.081 59.216 140.228 59.1077C142.17 57.6668 143.867 56.0075 144.725 53.6749C146.779 48.1063 146.028 42.6066 144.265 37.1403C144.18 36.8805 144.051 36.6994 143.728 36.6639C142.295 36.5065 140.875 36.5084 139.477 36.9218C138.78 36.8903 138.143 37.1521 137.504 37.3667C136.891 37.5714 136.14 37.6895 135.741 38.1186C135.206 38.6934 135.923 39.3548 136.062 39.9807C136.548 42.144 136.305 42.8428 134.704 43.5573L134.355 43.5632C133.858 43.3664 133.348 43.1912 132.966 42.7857C132.895 42.5908 132.825 42.3959 132.756 42.2011C132.462 39.5122 131.338 37.3726 128.853 36.0734C127.893 35.5715 127.538 34.3845 127.995 33.5558C128.463 32.7074 129.449 32.4004 130.43 32.8649C131.373 33.3098 132.237 33.8885 132.98 34.6365C133.219 34.8766 133.397 35.1758 133.875 34.9652C135.061 34.4455 136.281 34.0046 137.489 33.5322C139.064 33.3806 140.614 33.0224 142.195 33.046C142.195 32.8767 142.219 32.8019 142.191 32.7567C139.203 27.8278 135.082 24.1921 129.839 21.832C129.404 21.6371 129.229 21.7178 129.041 22.147C127.73 25.1429 125.786 27.6546 123.188 29.6328C122.798 29.93 122.782 30.2233 122.853 30.6426C123.449 34.2704 123.068 37.8135 121.91 41.2858C120.993 44.0337 119.351 46.3347 117.476 48.4882L117.486 48.4803C117.413 48.5511 117.341 48.622 117.268 48.6909C115.867 49.9645 114.411 51.1652 112.706 52.0195C112.12 52.3128 111.823 52.7911 111.566 53.4033C109.483 58.3617 106.093 61.5426 100.399 61.4698C99.8009 61.4619 99.556 61.6076 99.7343 62.265C100.295 64.3279 101.03 66.3081 102.221 68.0994C103.481 69.993 104.978 71.6523 106.834 72.979C107.986 73.8038 108.217 74.8333 107.51 75.7388C106.785 76.6678 105.779 76.719 104.69 75.8824C104.251 75.5459 103.814 75.2093 103.375 74.8746L103.369 74.8687C102.856 74.4022 102.34 73.9337 101.827 73.4672L101.635 73.2763C101.58 73.1956 101.533 73.107 101.47 73.0342C98.923 70.117 97.1359 66.7983 96.2189 62.954C96.0856 63.0504 95.9739 63.1075 95.8897 63.1921C92.1666 66.8967 87.6792 68.1348 82.5668 67.377C81.2441 67.1801 81.2422 67.188 81.2422 68.56C81.2441 75.2427 81.2814 81.9255 81.2304 88.6082C81.2148 90.6986 82.2455 92.1769 83.5779 93.5666L84.1991 94.3402C84.6361 94.728 85.0496 95.1472 85.514 95.5015C88.5669 97.8203 92.0862 98.8675 95.8329 99.2612C96.9615 99.3793 97.7375 100.123 97.6944 101.119C97.6513 102.106 96.8205 102.777 95.682 102.822C95.0197 102.848 94.3867 102.71 93.746 102.607C89.9974 102.007 86.4898 100.797 83.4486 98.4404C82.753 97.901 82.0946 97.3125 81.3323 96.6727C81.0796 98.5526 81.4715 100.236 81.4401 101.932C81.3794 105.21 81.4401 108.491 81.4127 111.768C81.4068 112.457 81.6165 112.698 82.3043 112.656C82.9548 112.619 83.5975 112.522 84.2422 112.477C87.789 112.233 91.1907 111.422 94.3514 109.786C95.6565 109.111 96.8146 108.672 98.0452 109.834C98.1608 109.942 98.4214 109.895 98.6154 109.92C99.2993 110.546 100.212 110.696 101.01 111.089C101.122 111.15 101.227 111.225 101.347 111.268C105.942 112.969 110.676 113.776 115.585 113.674C116.643 113.652 117.162 113.259 117.619 112.412C119.145 109.578 119.743 106.55 119.657 103.348C119.637 102.617 119.288 102.482 118.738 102.647C118.028 102.859 117.315 102.806 116.602 102.806C115.367 102.806 114.742 102.2 114.738 101.049C114.734 100.001 115.483 99.2947 116.637 99.2671C119.275 99.2041 121.415 98.1589 123.019 96.0389C123.701 95.1374 124.779 94.9228 125.586 95.5134C126.429 96.1295 126.525 97.279 125.882 98.2179C125.204 99.2061 124.307 99.958 123.384 100.68C123.055 100.938 122.943 101.19 122.998 101.592C123.441 104.848 123.164 108.032 122.083 111.148C121.877 111.741 121.25 112.505 121.612 112.91C122.006 113.349 122.82 112.808 123.439 112.666C133.44 110.363 141.165 104.93 146.259 95.8913C148.697 91.238 150.447 86.3583 151.237 81.1401C151.623 78.591 151.63 78.5181 149.365 77.2662C149.195 77.1718 149.013 77.1009 148.836 77.0202C147.676 76.4179 146.412 76.1442 145.152 75.8549C144.006 75.5911 143.504 74.7605 143.747 73.5853C143.922 72.7409 144.909 72.1504 145.887 72.3452C146.679 72.5027 147.461 72.7113 148.248 72.8964C149.408 73.355 150.549 73.8589 151.738 74.5183C151.566 68.2332 150.112 62.4993 146.992 57.1176C146.218 58.2987 145.411 59.2829 144.484 60.1608C143.534 61.0604 142.534 61.9107 141.413 62.5819C140.851 62.9205 140.722 63.2866 140.779 63.9244C141.2 68.7293 140.304 73.1739 137.11 76.9611C137.059 77.0222 137.077 77.1403 137.063 77.2328L137.081 77.219C136.887 77.154 136.803 77.2899 136.715 77.4198C136.309 77.6737 136.646 77.8469 136.787 78.028C137.69 79.1874 138.509 80.394 139.072 81.768C140.228 84.5907 140.732 87.4842 140.442 90.5549C140.236 92.7261 139.752 94.7969 138.964 96.8086C138.59 97.7652 137.598 98.2475 136.775 97.9286C135.656 97.4955 135.206 96.5979 135.641 95.5035C136.187 94.1315 136.595 92.73 136.766 91.2596C137.163 87.8326 136.862 84.5375 134.922 81.5613C133.895 79.9846 133.897 79.9984 132.292 80.7936C131.71 81.081 131.079 81.27 130.501 81.5672C129.654 82.0042 128.657 81.9747 127.842 82.4845C127.066 82.5534 126.274 82.516 125.52 82.7679C124.914 83.2029 124.742 83.9372 124.33 84.506C123.995 84.9568 123.576 85.3465 123.353 85.878C122.185 87.1988 120.962 88.4625 119.496 89.4566C115.217 92.356 110.514 93.3875 105.391 92.8068C100.82 92.2891 96.8087 90.486 93.213 87.7047C92.5585 87.1968 92.2861 87.2205 91.7668 87.7874C90.8831 88.7519 89.9307 89.6731 88.4787 89.6711C87.5225 89.4448 87.0835 88.7617 86.8935 87.8602C87.0855 87.3051 87.2521 86.7559 87.8086 86.4095C90.3246 84.8367 91.6649 82.5219 92.0255 79.5929C92.1333 78.7209 93.0738 77.965 93.891 78.0359C94.7982 78.1146 95.5017 78.8685 95.5409 79.7976C95.5958 81.1066 95.2195 82.3211 94.6689 83.4785C94.4377 83.9628 94.5298 84.1911 94.9393 84.5238C96.5716 85.8485 98.3273 86.9685 100.265 87.7637C105.478 89.9054 110.67 90.1121 115.82 87.5079C122.947 83.9037 124.769 75.5596 121.342 69.6288C120.983 69.0068 120.658 68.2332 120.025 67.9754C119.526 67.7726 119.079 68.5285 118.542 68.7391C118.209 68.871 117.901 69.0659 117.57 69.2017C116.686 69.5639 115.669 69.1761 115.238 68.3277C114.868 67.5974 115.144 66.5758 115.9 66.1014C117.002 65.4125 118.164 64.8338 118.934 63.698C119.496 62.8693 119.837 61.9698 120.147 61.0387C120.474 60.0565 121.271 59.5526 122.153 59.7376C123.16 59.9482 123.588 60.525 123.56 61.6607C123.537 62.6371 123.149 63.5071 122.708 64.3456C122.451 64.8338 122.428 65.1468 122.833 65.6212C124.622 67.7175 125.786 70.1308 126.333 72.857C126.705 74.7073 126.695 76.5458 126.456 78.4C126.421 78.6796 126.202 79.0595 126.76 78.9433C130.385 78.1914 133.391 76.4631 135.411 73.2605C137.363 70.1682 137.622 66.7609 137.075 63.2512C136.315 58.3735 133.975 54.4957 129.723 51.8896C129.094 51.5037 128.675 51.0195 128.616 50.2656C128.651 49.8306 128.69 49.3956 129.041 49.0747C129.098 49.0137 129.157 48.9507 129.213 48.8897L129.217 48.8799ZM81.4832 26.2491L81.4675 28.0207C81.0835 32.8157 81.2814 37.6167 81.2304 42.4826C81.4773 42.4176 81.6027 42.394 81.7203 42.3507C84.4225 41.3724 87.1874 40.9236 90.0522 41.394C91.3788 41.6125 92.6525 41.772 93.1287 40.0398C93.1757 39.8685 93.3717 39.7366 93.4991 39.587C94.2045 38.7583 95.3214 38.5733 96.0994 39.154C96.8616 39.7248 96.9361 40.8527 96.2855 41.77C95.3234 43.1341 94.665 44.6025 94.7708 46.3268C94.7669 46.8465 94.7806 47.3681 94.7571 47.8858C94.714 48.8917 94.181 49.431 93.1875 49.4901C92.9308 49.5058 92.6702 49.4783 92.4115 49.4704C91.5454 49.0649 91.2828 48.3523 91.1966 47.4311C91.1261 46.6969 91.4298 45.8229 91.0496 45.2757C90.6166 44.6517 89.6427 44.9037 88.9235 44.8348C86.4467 44.5986 84.0718 45.0808 81.8516 46.2422C81.4127 46.4705 81.2226 46.7993 81.2246 47.3386C81.2481 52.3856 81.25 57.4306 81.2285 62.4776C81.2246 63.1232 81.4558 63.4205 82.0593 63.572C83.913 64.0386 85.7648 64.1468 87.6518 63.7728C89.3468 63.4382 90.8302 62.7374 92.196 61.6548C93.6323 60.5151 94.6571 59.0624 95.6976 57.6038C95.972 57.218 96.1699 56.8303 96.7734 57.0645C97.8375 57.4779 98.9544 57.659 100.089 57.8046C102.472 58.1097 104.514 57.3873 106.058 55.6295C110.026 51.112 110.357 44.3781 106.9 39.4847C106.287 38.6166 105.813 37.5104 104.58 37.2545L104.574 37.2486C104.294 36.5006 103.54 36.3077 102.973 35.91C102.29 35.4278 102.096 34.7821 102.231 34.0282C102.354 33.3354 102.805 32.9102 103.493 32.676C104.355 32.3827 104.958 32.9004 105.55 33.2999C109.073 35.6758 111.39 38.9178 112.385 43.0888C112.734 44.5494 112.84 46.0316 112.779 47.5886C112.965 47.5217 113.055 47.502 113.134 47.4587C113.277 47.3799 113.424 47.3032 113.545 47.1969C116.047 45.0041 117.966 42.4274 118.873 39.1579C119.622 36.4612 119.635 33.7369 119.241 31.0048C118.757 27.6408 117.586 24.5642 115.189 22.0643C114.098 20.9265 114.09 20.9344 112.759 21.7395C111.731 22.3635 110.745 22.208 110.175 21.334C109.604 20.46 109.832 19.4837 110.79 18.7869C112.134 17.8106 112.706 16.4504 112.773 14.8324C112.969 13.6297 113.686 12.9702 114.697 13.0667C115.661 13.1572 116.292 13.9485 116.31 15.0646C116.322 15.728 116.222 16.3835 116.02 16.9996C115.832 17.5665 115.977 17.9109 116.406 18.2672C118.748 20.212 120.384 22.6686 121.479 25.4952C121.72 26.1172 121.91 26.1743 122.381 25.698C124.038 24.0248 125.316 22.1214 126.151 19.9049C126.386 19.2829 126.345 18.8381 125.927 18.3027C124.413 16.3559 122.745 14.5588 120.829 13.0155C113.431 7.05913 105.121 4.18919 95.6036 5.8151C87.0992 7.26778 83.4035 13.9978 82.0965 20.8596C82.0221 21.2533 82.2827 21.0545 82.4355 20.9521C84.1482 20.2396 85.8941 19.6707 87.7498 19.4306C88.6492 19.3144 89.5839 19.5743 90.4481 19.1668C90.7694 19.1747 91.0986 19.1432 91.4102 19.1983C92.3684 19.3695 92.7682 18.9089 92.8171 18.0113C94.0732 15.1001 96.0288 12.9014 99.0955 11.8561C100.271 11.4546 101.218 11.8109 101.545 12.7399C101.919 13.8029 101.429 14.7733 100.242 15.2044C98.4547 15.8559 97.2653 17.1157 96.409 18.779C96.0406 19.4935 96.1287 19.777 96.9517 19.9837C98.7192 20.4305 100.444 21.0368 102.07 21.8733C103.514 22.6154 103.722 23.9323 102.638 24.9539C101.766 25.7747 100.977 25.3003 100.134 24.9185C95.4605 22.8024 90.6362 22.0603 85.6433 23.5465C84.5048 23.8851 83.2311 24.2 82.5551 25.4066C82.1044 25.4125 81.8222 25.6645 81.6263 26.0444C81.5773 26.1113 81.5302 26.1802 81.4813 26.2471L81.4832 26.2491ZM44.2247 14.8343C44.3383 16.4701 44.8674 17.8735 46.2881 18.8479C47.1953 19.4699 47.3756 20.4876 46.8211 21.3379C46.2881 22.1548 45.3573 22.3556 44.4089 21.8261C44.1287 21.6686 43.8602 21.4698 43.631 21.2435C43.2841 20.901 42.9843 20.8596 42.6375 21.2356C42.0398 21.8812 41.3599 22.4442 40.8406 23.1705C38.2422 26.8101 37.3134 30.8965 37.574 35.3097C37.574 35.5046 37.574 35.6975 37.574 35.8923C37.8856 40.833 40.2253 44.6222 44.2267 47.7717C44.1502 46.0355 44.2678 44.5513 44.6166 43.0967C45.6669 38.715 48.1202 35.349 51.9433 33.0007C52.3469 32.7527 52.7702 32.4673 53.313 32.611C54.0674 32.8098 54.6298 33.2291 54.767 34.0223C54.9041 34.8176 54.6925 35.4849 53.9381 35.9514C52.4312 36.8785 51.0909 37.9985 50.068 39.4768C47.9694 42.5081 47.2914 45.8564 47.9811 49.4487C48.5023 52.1612 49.5762 54.6256 51.8453 56.3834C52.4743 57.0921 53.2581 57.4857 54.2007 57.5507C56.0113 58.2593 57.8062 57.842 59.509 57.2672C60.5789 56.907 61.0669 57.1393 61.6234 58.027C62.6874 59.7218 63.9807 61.2415 65.6972 62.3201C68.6698 64.1901 71.8502 64.3555 75.1735 63.4992C75.7751 63.3437 75.9613 63.0957 75.9593 62.5032C75.9417 57.4877 75.9417 52.4702 75.9495 47.4547C75.9495 46.9843 75.8378 46.6654 75.4008 46.4154C72.5556 44.7777 69.5203 44.4706 66.3498 45.0533C66.0304 45.1123 65.6365 45.2403 65.803 45.6812C66.0284 46.2816 65.8344 46.8386 65.7756 47.4173C65.6287 48.8877 65.0388 49.5334 63.8533 49.4861C62.658 49.4389 62.1348 48.7834 62.2504 47.2067C62.4013 45.1478 61.8605 43.3388 60.6554 41.6834C60.0126 40.8015 60.1674 39.6795 60.916 39.1402C61.6724 38.5949 62.8089 38.7524 63.4457 39.5378C63.8337 40.0181 64.1884 40.5358 64.4843 41.0751C64.7312 41.5239 65.0427 41.6657 65.5209 41.579C66.9611 41.3192 68.4171 41.2051 69.8789 41.1932C70.1375 41.1992 70.3981 41.2051 70.6568 41.2129C72.2989 41.5712 73.9802 41.7621 75.5458 42.4511C76.0514 42.6735 75.9279 42.1519 75.926 41.9176C75.9123 40.4157 75.8535 38.9138 75.8064 37.4139C75.7026 34.0479 75.6771 30.68 75.5831 27.312C75.5537 26.257 75.1559 25.6173 74.3584 25.0523C71.7933 23.2315 68.8384 22.7375 65.8364 22.7768C62.5698 22.8221 59.413 23.6134 56.458 25.1055C55.3352 25.6724 54.3614 25.3377 53.8225 24.3083C53.3796 23.4638 53.7852 22.4836 54.8787 21.9068C55.6801 21.4836 56.5168 21.1313 57.3379 20.7494C57.5319 20.6825 57.7278 20.6155 57.9218 20.5506C58.6723 20.3518 59.4189 20.1293 60.1753 19.9581C60.8239 19.8124 60.9512 19.5231 60.6456 18.9227C59.7716 17.2043 58.5959 15.8441 56.7089 15.1985C56.0505 14.9741 55.4802 14.5627 55.3764 13.7812C55.1589 12.1553 56.4189 11.24 58.0296 11.864C61.1727 13.0824 63.2184 15.3678 64.3079 18.5251C64.4764 19.0152 64.6391 19.2101 65.1623 19.1983C68.4151 19.1215 71.566 19.6195 74.5563 20.96C74.8384 21.1942 74.9835 21.1647 74.8816 20.7691C74.5837 19.5979 74.3505 18.403 73.9567 17.2653C72.1911 12.1612 69.1636 8.2008 63.8474 6.45286C59.8559 5.13993 55.7663 5.05332 51.665 5.78951C43.1352 7.31896 36.2788 11.6376 30.9567 18.47C30.6412 18.8755 30.5942 19.2475 30.7706 19.7317C31.6053 22.0151 32.9025 23.9894 34.6132 25.7058C35.0854 26.1802 35.2736 26.1212 35.5126 25.5011C36.608 22.6765 38.2422 20.2179 40.5898 18.279C41.0209 17.9228 41.1502 17.5724 40.9758 17.0075C40.7955 16.4228 40.723 15.789 40.6956 15.1729C40.6446 13.9859 41.2972 13.171 42.2926 13.0765C43.2998 12.9821 44.0189 13.6415 44.2188 14.8422L44.2247 14.8343Z" fill="white"/>
<path d="M78.497 48.7547C79.0476 48.8307 79.7344 48.9505 80.5811 49.1199C85.9984 50.2154 85.581 59.537 89.1925 69.2677C92.804 78.9983 99.7459 88.4543 121.137 86.8097C142.525 85.165 145.162 66.2529 145.858 62.2771C146.554 58.3043 148.22 54.4658 148.22 54.4658L150.319 52.3946C150.754 51.9652 151 51.3809 151 50.7733V41.0631C151 39.994 150.254 39.0709 149.197 38.8313C145.704 38.0397 137.406 36.2694 126.693 34.7299C112.389 32.6733 97.8039 35.4164 94.7489 37.47C91.6939 39.5266 89.1925 40.2101 89.1925 40.2101H67.8016C67.8016 40.2101 65.3001 39.5236 62.2451 37.47C59.1901 35.4135 44.6079 32.6733 30.3038 34.727C19.5936 36.2694 11.293 38.0397 7.80281 38.8313C6.74895 39.0709 6 39.994 6 41.0631V50.7762C6 51.3839 6.2457 51.9652 6.68086 52.3975L8.77969 54.4687C8.77969 54.4687 10.4463 58.3072 11.142 62.2801C11.8377 66.2529 14.4753 85.1679 35.8632 86.8126C57.2512 88.4572 64.196 79.0012 67.8075 69.2706C71.419 59.5399 71.0016 50.2212 76.4189 49.1228C77.2685 48.9505 77.9523 48.8307 78.503 48.7547H78.497Z" fill="#7164C0"/>
</svg>
